<?xml version="1.0" standalone="no"?>
<!DOCTYPE svg PUBLIC "-//W3C//DTD SVG 20010904//EN"
 "http://www.w3.org/TR/2001/REC-SVG-20010904/DTD/svg10.dtd">
<svg version="1.0" xmlns="http://www.w3.org/2000/svg"
 width="65.000000pt" height="85.000000pt" viewBox="0 0 65.000000 85.000000"
 preserveAspectRatio="xMidYMid meet">
<metadata>
Created by potrace 1.14, written by Peter Selinger 2001-2017
</metadata>
<g transform="translate(0.000000,85.000000) scale(0.100000,-0.100000)"
fill="#000000" stroke="none">
<path d="M410 719 c-41 -16 -60 -40 -67 -82 l-6 -40 -19 37 c-36 70 -124 83
-188 30 -26 -22 -30 -33 -30 -73 0 -35 -7 -56 -25 -81 -18 -24 -24 -43 -20
-60 2 -14 7 -42 9 -63 6 -52 76 -137 113 -137 4 0 -7 9 -25 20 -33 21 -62 71
-62 110 0 31 74 100 99 93 20 -5 20 -6 -3 -24 -24 -19 -52 -101 -41 -120 4 -5
14 -9 24 -9 9 0 22 -5 29 -12 9 -9 17 -9 36 1 18 10 29 10 45 2 11 -7 21 -15
21 -20 0 -19 -39 -41 -74 -41 l-38 0 29 -24 c47 -39 69 -46 145 -48 58 -2 82
2 114 20 51 26 94 76 94 107 0 13 5 25 11 27 16 5 -5 125 -26 148 -12 13 -13
20 -5 25 6 4 10 17 9 28 -1 12 1 40 6 61 10 50 -14 99 -60 120 -37 18 -59 19
-95 5z m40 -89 c10 -5 32 -10 49 -10 33 0 42 -16 15 -27 -8 -3 -13 -12 -9 -21
3 -8 0 -21 -6 -28 -14 -17 -5 -18 21 -2 10 7 23 9 27 5 11 -12 -12 -42 -33
-43 -11 0 -29 -5 -41 -12 -31 -17 -93 -15 -115 5 -24 22 -23 76 3 133 26 57
40 66 57 35 7 -14 21 -29 32 -35z m-178 -10 c31 0 41 -5 50 -24 9 -21 7 -33
-13 -73 -24 -47 -24 -48 -70 -46 -26 0 -57 7 -70 14 -13 7 -28 13 -34 14 -19
0 -17 35 2 35 16 0 36 24 68 82 6 11 13 14 19 8 6 -6 27 -10 48 -10z m277
-156 c21 -27 36 -113 21 -128 -5 -5 -10 -21 -10 -34 0 -50 -134 -135 -183
-116 -48 18 18 67 84 63 47 -4 55 3 63 62 5 35 3 49 -8 58 -13 11 -20 8 -40
-14 -17 -19 -31 -25 -44 -21 -27 9 -18 50 9 43 13 -4 19 2 21 21 4 34 26 40
37 10 6 -15 10 -17 10 -7 1 26 -26 44 -44 29 -8 -7 -15 -19 -15 -27 0 -9 -6
-13 -15 -9 -10 3 -17 -3 -21 -19 -3 -14 -18 -31 -32 -38 -15 -6 -28 -21 -31
-32 -2 -11 -11 -25 -20 -33 -14 -11 -14 -12 4 -10 13 2 22 13 25 33 3 18 12
31 23 33 30 6 67 -7 67 -23 0 -8 5 -15 11 -15 5 0 7 5 4 10 -9 15 22 60 41 60
12 0 14 -8 8 -47 -3 -27 -8 -51 -10 -54 -6 -11 -106 8 -115 22 -5 8 -9 9 -9 4
0 -6 5 -16 11 -22 7 -7 2 -15 -15 -27 -15 -9 -26 -23 -26 -31 0 -22 -49 -19
-90 7 l-35 21 32 9 c35 9 56 37 47 61 -3 8 2 17 10 20 8 3 22 21 32 39 26 53
45 70 61 57 9 -9 13 -9 13 0 0 6 -4 12 -10 12 -5 1 -16 2 -22 3 -7 0 -14 9
-16 19 -3 14 4 17 40 17 24 0 53 6 63 14 24 17 50 10 74 -20z m-254 -29 c42
-42 27 -123 -21 -111 -13 4 -34 1 -45 -5 -15 -8 -24 -8 -32 0 -6 6 -19 11 -29
11 -18 0 -25 20 -11 33 3 4 8 19 9 34 7 61 84 83 129 38z"/>
<path d="M340 90 c0 -56 3 -70 15 -70 10 0 15 10 15 33 l0 32 21 -32 c25 -39
73 -47 82 -13 6 24 67 29 67 6 0 -15 18 -31 26 -24 8 8 -48 138 -60 138 -6 0
-22 -29 -34 -65 -13 -36 -27 -65 -32 -65 -4 0 -15 11 -24 25 -15 23 -15 27 -1
41 31 32 10 64 -42 64 l-33 0 0 -70z"/>
</g>
</svg>
